<?xml version="1.0" encoding="UTF-8"?>
<!-- Generator: visioncortex VTracer 0.6.2 -->
<svg version="1.1" xmlns="http://www.w3.org/2000/svg" width="1280" height="639">
<path d="M0 0 C4.89289165 -0.1238948 9.78486427 -0.21447509 14.67895508 -0.2746582 C16.34252839 -0.29975347 18.00599196 -0.33383796 19.66918945 -0.37719727 C22.06489153 -0.4380746 24.45913251 -0.46625769 26.85546875 -0.48828125 C27.96513252 -0.52699089 27.96513252 -0.52699089 29.09721375 -0.56648254 C33.08770006 -0.56863437 34.78067164 -0.17976859 37.9074707 2.38305664 C39.82164417 4.77694596 41.47325713 7.09554932 43 9.75 C43.50660156 10.62269531 44.01320313 11.49539062 44.53515625 12.39453125 C45.85071633 14.73447411 47.1482336 17.08300365 48.4375 19.4375 C50.30591301 22.84495835 52.32698107 26.11202665 54.4375 29.375 C57.30950315 33.83774627 59.90293391 38.38332239 62.41015625 43.05859375 C67.24576021 52.00505514 72.4151374 60.72481003 77.78515625 69.359375 C81.02351396 74.62826242 84.07667796 80.00794074 87.14379883 85.37768555 C89.10471899 88.79635041 91.06512833 92.15045713 93.328125 95.37890625 C95 98 95 98 95 101 C95.66 101 96.32 101 97 101 C97.39832031 101.81404297 97.39832031 101.81404297 97.8046875 102.64453125 C98.15789062 103.35996094 98.51109375 104.07539063 98.875 104.8125 C99.22304688 105.52019531 99.57109375 106.22789062 99.9296875 106.95703125 C101.0656486 109.21246418 101.0656486 109.21246418 103 112 C103 112.99 103 113.98 103 115 C103.66 115 104.32 115 105 115 C107.27255353 118.15556378 109.08647471 121.61764192 111 125 C111.56976562 125.98097656 112.13953125 126.96195312 112.7265625 127.97265625 C113.27054688 128.93042969 113.81453125 129.88820313 114.375 130.875 C114.87773438 131.75929688 115.38046875 132.64359375 115.8984375 133.5546875 C117 136 117 136 117 140 C117.66 140 118.32 140 119 140 C119 140.99 119 141.98 119 143 C119.66 143 120.32 143 121 143 C121.54269531 143.95261719 122.08539062 144.90523437 122.64453125 145.88671875 C123.36715839 147.15366244 124.08981627 148.42058859 124.8125 149.6875 C125.16892578 150.31333984 125.52535156 150.93917969 125.89257812 151.58398438 C126.59613552 152.81682348 127.30222983 154.04821866 128.01098633 155.27807617 C128.89343825 156.8144705 129.76031183 158.35978846 130.625 159.90625 C131.82213338 162.17972529 131.82213338 162.17972529 134.1875 162.8125 C134.785625 162.874375 135.38375 162.93625 136 163 C136.22945312 162.2059375 136.45890625 161.411875 136.6953125 160.59375 C138.36454651 155.99585992 140.57795382 151.8114778 142.875 147.5 C143.35533691 146.59088867 143.83567383 145.68177734 144.33056641 144.74511719 C152.47498558 129.38136291 160.76004322 114.07031755 169.4375 99 C182.56673203 76.09142087 195.42350114 52.99868724 207.9140625 29.734375 C208.22921814 29.14748398 208.54437378 28.56059296 208.86907959 27.95591736 C210.35348804 25.18925021 211.83364854 22.42040655 213.30859375 19.64868164 C213.83839844 18.65731201 214.36820313 17.66594238 214.9140625 16.64453125 C215.3673291 15.79221924 215.8205957 14.93990723 216.28759766 14.06176758 C218.75569761 9.64881611 221.39858114 5.33569809 224 1 C237.86 1.495 237.86 1.495 252 2 C252.33 7.94 252.66 13.88 253 20 C255.74146227 15.66584451 255.74146227 15.66584451 258.47338867 11.32568359 C258.8263501 10.77219238 259.17931152 10.21870117 259.54296875 9.6484375 C259.89383545 9.09333496 260.24470215 8.53823242 260.60620117 7.96630859 C261.06615479 7.31742676 261.5261084 6.66854492 262 6 C262.69727298 4.98354338 263.39454596 3.96708675 264.11294842 2.91982841 C266.34368073 0.2787413 266.87791118 0.02528921 270.48883533 -0.7226696 C271.85471169 -0.7404285 273.22126585 -0.72516034 274.58662415 -0.68356323 C275.3422699 -0.68460623 276.09791566 -0.68564923 276.87645978 -0.68672383 C279.40475997 -0.6828997 281.93040758 -0.63605965 284.45825195 -0.58935547 C286.27175964 -0.5777991 288.08528591 -0.56889799 289.89881897 -0.56245422 C294.82036358 -0.53743679 299.74082175 -0.47524748 304.66192269 -0.40643454 C309.80539225 -0.34081607 314.94906722 -0.30930892 320.09281921 -0.27420044 C329.83237064 -0.20253118 339.57134758 -0.1001364 349.31049269 0.01326835 C360.39848175 0.14088548 371.48667613 0.23429524 382.57502043 0.32481599 C405.38383198 0.51178516 428.19182659 0.74627774 451 1 C451 16.84 451 32.68 451 49 C433.63048641 49.02268426 416.26098572 49.04105855 398.89146137 49.05181217 C390.82420123 49.05694078 382.75695102 49.06391695 374.68969727 49.07543945 C367.64791153 49.08549237 360.60613301 49.09187832 353.56434029 49.09408849 C349.84521 49.09537783 346.12610031 49.09834831 342.4069767 49.10573006 C338.88659622 49.11265888 335.36624427 49.11458382 331.84585762 49.11310768 C329.97842158 49.11350215 328.11098844 49.11880746 326.24356079 49.12442017 C315.44557106 49.11176785 304.82896937 48.51566521 294 48 C293.67 76.71 293.34 105.42 293 135 C300.76144531 134.97679687 308.52289062 134.95359375 316.51953125 134.9296875 C321.42773771 134.91947208 326.33593111 134.90984439 331.24414062 134.90234375 C339.03982251 134.89037422 346.83545755 134.87619312 354.63110352 134.84912109 C360.91397809 134.82743828 367.19680244 134.815441 373.47971153 134.81024551 C375.88036579 134.80654155 378.2810172 134.79930894 380.68165016 134.78853989 C384.03628164 134.77408569 387.39070388 134.77201952 390.74536133 134.77294922 C391.74445526 134.76575867 392.74354919 134.75856812 393.7729187 134.75115967 C394.68577133 134.753909 395.59862396 134.75665833 396.53913879 134.75949097 C397.72963443 134.75672559 397.72963443 134.75672559 398.94418049 134.75390434 C401 135 401 135 404 137 C404 152.51 404 168.02 404 184 C368.03 184 332.06 184 295 184 C294.67 211.72 294.34 239.44 294 268 C280.8 268 267.6 268 254 268 C251.83895878 264.75843817 251.75041661 263.89386596 251.75276184 260.15568542 C251.74856735 259.15682816 251.74437286 258.15797089 251.74005127 257.12884521 C251.74567078 256.03340393 251.75129028 254.93796265 251.75708008 253.80932617 C251.75518173 252.65429092 251.75328339 251.49925568 251.75132751 250.30921936 C251.74760856 246.47040113 251.75835196 242.63177036 251.76953125 238.79296875 C251.77072406 236.11468731 251.77122669 233.43641377 251.7709198 230.75813293 C251.77185768 225.12478309 251.780544 219.49148694 251.79418945 213.8581543 C251.8097714 207.40277235 251.81519256 200.94744976 251.8144539 194.49205035 C251.81376935 187.56876894 251.82077652 180.64550959 251.8299005 173.72223496 C251.83200225 171.75758015 251.83258149 169.79292391 251.83313942 167.82826805 C251.84207116 152.79017526 252.0691611 137.80708459 252.91086864 122.79065418 C252.9737026 121.52831638 253 120.26390064 253 119 C248.99012925 125.24003828 245.42868739 131.6456219 241.9375 138.1875 C237.29857562 146.81721535 232.55269176 155.37006516 227.6574707 163.85668945 C224.21285913 169.84120489 220.85559217 175.86909824 217.52758789 181.91918945 C211.92400572 192.09738856 206.20676057 202.18592921 200.1875 212.125 C199.29828857 213.60105713 199.29828857 213.60105713 198.39111328 215.10693359 C197.84310059 216.00234863 197.29508789 216.89776367 196.73046875 217.8203125 C196.24989014 218.60680176 195.76931152 219.39329102 195.27416992 220.20361328 C194 222 194 222 192 223 C191.67 221.02 191.34 219.04 191 217 C190.67 217 190.34 217 190 217 C190 211.39 190 205.78 190 200 C189.67 200 189.34 200 189 200 C188.82790015 197.75040906 188.66267174 195.50029236 188.5 193.25 C188.4071875 191.99703125 188.314375 190.7440625 188.21875 189.453125 C188.18789307 188.7528418 188.15703613 188.05255859 188.12524414 187.33105469 C188.03662826 185.68172835 187.88343496 184.03528639 187.68530273 182.39550781 C186.90540643 172.26290156 191.40675663 164.8913055 196.0625 156.25 C197.58294352 153.36390997 199.09041745 150.47112785 200.59765625 147.578125 C200.96999893 146.86926147 201.34234161 146.16039795 201.72596741 145.43005371 C204.93463757 139.26916836 207.7384921 132.97067897 210.44726562 126.57714844 C212.74926539 121.27386219 215.34484812 116.13523881 218 111 C217.34 111.99 216.68 112.98 216 114 C215.34 114 214.68 114 214 114 C213.7218042 114.72477539 213.4436084 115.44955078 213.15698242 116.19628906 C211.21946721 120.89146202 208.73092172 125.28816386 206.3125 129.75 C205.74233154 130.8026001 205.17216309 131.8552002 204.5847168 132.93969727 C198.60180421 143.88258775 192.17126057 154.54155981 185.69677734 165.19824219 C176.76865932 179.94055621 167.96422324 194.80188894 160.38671875 210.2890625 C159.0714017 212.86041471 157.64563982 215.29577701 156.125 217.75 C148.31576853 230.50845869 142.34908803 244.47879401 136 258 C135.01 258 134.02 258 133 258 C131.54779298 255.98199803 130.3368328 254.03437116 129.125 251.875 C128.3310153 250.50374053 127.53672514 249.1326579 126.7421875 247.76171875 C126.30874023 247.00552246 125.87529297 246.24932617 125.42871094 245.47021484 C123.87517538 242.78418053 122.28872308 240.11959556 120.6953125 237.45703125 C119.54686479 235.53386026 118.39842724 233.61068321 117.25 231.6875 C116.70746582 230.78177246 116.16493164 229.87604492 115.60595703 228.94287109 C112.6002296 223.87549334 109.82265229 218.76193952 107.22900391 213.47241211 C105.12130612 209.23231367 102.8385816 205.08895274 100.5625 200.9375 C100.0480835 199.99704834 99.53366699 199.05659668 99.00366211 198.08764648 C93.32337776 187.72757757 87.55133174 177.41907974 81.75683594 167.12255859 C80.01521275 164.02703879 78.27708228 160.9295753 76.5390625 157.83203125 C71.47165476 148.81777995 66.3614575 139.85021643 60.97070312 131.02514648 C58.126594 126.32476257 55.68035774 121.48113219 53.28125 116.54296875 C51.73753226 113.47906556 50.05702421 110.74269894 48 108 C47.67 108 47.34 108 47 108 C45.96600938 140.67591064 45.87260166 173.33566038 45.92797339 206.0255897 C45.93942972 212.91630641 45.94471796 219.80702447 45.94967639 226.69774842 C45.95995165 240.79851094 45.97818468 254.89925072 46 269 C30.49 269 14.98 269 -1 269 C-1.1529792 240.08935956 -1.30180518 211.17870763 -1.4429636 182.26800728 C-1.45602156 179.59908161 -1.46908775 176.93015598 -1.48217773 174.26123047 C-1.48543066 173.59783861 -1.48868358 172.93444675 -1.49203508 172.25095211 C-1.54486458 161.4984542 -1.60125715 150.74597776 -1.6589582 139.99350502 C-1.71805159 128.96685142 -1.77325967 117.94018332 -1.82505554 106.91349304 C-1.85428509 100.71729657 -1.88530867 94.52112051 -1.92053413 88.32495499 C-1.953599 82.49909687 -1.98198608 76.67323513 -2.00670624 70.84733582 C-2.01664208 68.70346574 -2.02832161 66.55960296 -2.04183006 64.41575241 C-2.05994761 61.49999651 -2.07192413 58.58427975 -2.08229065 55.66848755 C-2.08909444 54.81052271 -2.09589823 53.95255787 -2.10290819 53.0685941 C-2.11412121 47.22824242 -2.11412121 47.22824242 -1 45 C-0.88232528 43.5505207 -0.82310732 42.09606004 -0.79467773 40.64208984 C-0.77473251 39.74130707 -0.75478729 38.84052429 -0.73423767 37.91244507 C-0.71752518 36.93844757 -0.70081268 35.96445007 -0.68359375 34.9609375 C-0.66281265 33.96494537 -0.64203156 32.96895325 -0.62062073 31.94277954 C-0.55510958 28.75359146 -0.49623296 25.56431942 -0.4375 22.375 C-0.39431627 20.21613707 -0.35070203 18.0572827 -0.30664062 15.8984375 C-0.19942664 10.5990477 -0.09766315 5.29957394 0 0 Z M223 98 C222.67 99.32 222.34 100.64 222 102 C222.66 101.67 223.32 101.34 224 101 C223.67 100.01 223.34 99.02 223 98 Z M221 103 C220.67 103.99 220.34 104.98 220 106 C219.01 106.495 219.01 106.495 218 107 C218.33 107.99 218.66 108.98 219 110 C220.74627478 107.38058783 221.38722388 105.96175123 222 103 C221.67 103 221.34 103 221 103 Z M294 136 C294 136.33 294 136.66 294 137 C326.67 137 359.34 137 393 137 C393 136.67 393 136.34 393 136 C360.33 136 327.66 136 294 136 Z M253 143 C253 172.7 253 202.4 253 233 C253.33 233 253.66 233 254 233 C254 203.3 254 173.6 254 143 C253.67 143 253.34 143 253 143 Z M189 177 C189 179.64 189 182.28 189 185 C189.33 185 189.66 185 190 185 C190 182.36 190 179.72 190 177 C189.67 177 189.34 177 189 177 Z " fill="#F7F7F7" transform="translate(493,185)"/>
<path d="M0 0 C0.33 0 0.66 0 1 0 C1 71.94 1 143.88 1 218 C0.67 218 0.34 218 0 218 C0 146.06 0 74.12 0 0 Z " fill="#F7F7F7" transform="translate(490,233)"/>
<path d="M0 0 C58.08 0 116.16 0 176 0 C176 0.33 176 0.66 176 1 C117.92 1 59.84 1 0 1 C0 0.67 0 0.34 0 0 Z " fill="#F7F7F7" transform="translate(765,184)"/>
<path d="M0 0 C0.33 0 0.66 0 1 0 C1 14.19 1 28.38 1 43 C0.67 43 0.34 43 0 43 C0 28.81 0 14.62 0 0 Z " fill="#F7F7F7" transform="translate(491,187)"/>
<path d="M0 0 C7.59 0 15.18 0 23 0 C23 0.33 23 0.66 23 1 C15.41 1 7.82 1 0 1 C0 0.67 0 0.34 0 0 Z " fill="#F7F7F7" transform="translate(719,185)"/>
<path d="" fill="#F7F7F7" transform="translate(0,0)"/>
</svg>
